<mxfile host="app.diagrams.net" modified="2022-11-09T07:26:13.858Z" agent="5.0 (Windows NT 10.0; Win64; x64) AppleWebKit/537.36 (KHTML, like Gecko) Chrome/107.0.0.0 Safari/537.36" etag="rybmgxg33b02t-w5sonw" version="14.9.3" type="github">
  <diagram id="_bA3cPi3WCG5MyaZGagL" name="Page-1">
    <mxGraphModel dx="2062" dy="1114" grid="1" gridSize="10" guides="1" tooltips="1" connect="1" arrows="1" fold="1" page="1" pageScale="1" pageWidth="1169" pageHeight="827" math="0" shadow="0">
      <root>
        <mxCell id="0" />
        <mxCell id="1" parent="0" />
        <mxCell id="kD6bPrZGEhRhWK4-ZteS-1" value="시작" style="strokeWidth=2;html=1;shape=mxgraph.flowchart.terminator;whiteSpace=wrap;" parent="1" vertex="1">
          <mxGeometry x="509" y="10" width="125" height="60" as="geometry" />
        </mxCell>
        <mxCell id="kD6bPrZGEhRhWK4-ZteS-3" value="백업설정파일이 없을경우" style="strokeWidth=2;html=1;shape=mxgraph.flowchart.decision;whiteSpace=wrap;" parent="1" vertex="1">
          <mxGeometry x="480" y="610" width="183" height="100" as="geometry" />
        </mxCell>
        <mxCell id="kD6bPrZGEhRhWK4-ZteS-4" value="백업임시 에러로그파일에&lt;br&gt;&amp;nbsp;&quot;백업설정파일이 없습니다.[ERROR 1000]&quot;&lt;br&gt;&amp;nbsp;쓰고저장" style="rounded=1;whiteSpace=wrap;html=1;absoluteArcSize=1;arcSize=14;strokeWidth=2;" parent="1" vertex="1">
          <mxGeometry x="820" y="700" width="280" height="60" as="geometry" />
        </mxCell>
        <mxCell id="kD6bPrZGEhRhWK4-ZteS-5" value="종료" style="strokeWidth=2;html=1;shape=mxgraph.flowchart.terminator;whiteSpace=wrap;" parent="1" vertex="1">
          <mxGeometry x="897.5" y="810" width="125" height="60" as="geometry" />
        </mxCell>
        <mxCell id="kD6bPrZGEhRhWK4-ZteS-7" value="" style="endArrow=classic;html=1;entryX=0.5;entryY=0;entryDx=0;entryDy=0;exitX=1;exitY=0.5;exitDx=0;exitDy=0;exitPerimeter=0;" parent="1" source="kD6bPrZGEhRhWK4-ZteS-3" target="kD6bPrZGEhRhWK4-ZteS-4" edge="1">
          <mxGeometry width="50" height="50" relative="1" as="geometry">
            <mxPoint x="680" y="610" as="sourcePoint" />
            <mxPoint x="610" y="670" as="targetPoint" />
            <Array as="points">
              <mxPoint x="960" y="660" />
            </Array>
          </mxGeometry>
        </mxCell>
        <mxCell id="kD6bPrZGEhRhWK4-ZteS-8" value="예" style="edgeLabel;html=1;align=center;verticalAlign=middle;resizable=0;points=[];" parent="kD6bPrZGEhRhWK4-ZteS-7" vertex="1" connectable="0">
          <mxGeometry x="-0.591" y="-2" relative="1" as="geometry">
            <mxPoint x="54" y="-2" as="offset" />
          </mxGeometry>
        </mxCell>
        <mxCell id="kD6bPrZGEhRhWK4-ZteS-12" value="" style="endArrow=classic;html=1;entryX=0.5;entryY=0;entryDx=0;entryDy=0;entryPerimeter=0;exitX=0.5;exitY=1;exitDx=0;exitDy=0;" parent="1" source="kD6bPrZGEhRhWK4-ZteS-4" target="kD6bPrZGEhRhWK4-ZteS-5" edge="1">
          <mxGeometry width="50" height="50" relative="1" as="geometry">
            <mxPoint x="560" y="720" as="sourcePoint" />
            <mxPoint x="610" y="670" as="targetPoint" />
            <Array as="points" />
          </mxGeometry>
        </mxCell>
        <mxCell id="OQrnLdWi0ahkSrCYFGZf-4" value="EXECUTE_DATE = 실행날짜" style="rounded=1;whiteSpace=wrap;html=1;absoluteArcSize=1;arcSize=14;strokeWidth=2;" vertex="1" parent="1">
          <mxGeometry x="431.5" y="100" width="280" height="60" as="geometry" />
        </mxCell>
        <mxCell id="OQrnLdWi0ahkSrCYFGZf-5" value="EXECUTE_DATE_TIME = 생성날짜시간" style="rounded=1;whiteSpace=wrap;html=1;absoluteArcSize=1;arcSize=14;strokeWidth=2;" vertex="1" parent="1">
          <mxGeometry x="431.5" y="200" width="280" height="60" as="geometry" />
        </mxCell>
        <mxCell id="OQrnLdWi0ahkSrCYFGZf-6" value="BACKUP_TYPE = 백업유형(web, mariadb, etc...)" style="rounded=1;whiteSpace=wrap;html=1;absoluteArcSize=1;arcSize=14;strokeWidth=2;" vertex="1" parent="1">
          <mxGeometry x="431.5" y="300" width="280" height="60" as="geometry" />
        </mxCell>
        <mxCell id="OQrnLdWi0ahkSrCYFGZf-7" value="BACKUP_CONF_FILE = 백업설정파일 경로" style="rounded=1;whiteSpace=wrap;html=1;absoluteArcSize=1;arcSize=14;strokeWidth=2;" vertex="1" parent="1">
          <mxGeometry x="431.5" y="400" width="280" height="60" as="geometry" />
        </mxCell>
        <mxCell id="OQrnLdWi0ahkSrCYFGZf-8" value="BACKUP_TEMP_ERROR_FILE = 백업임시 에러로그파일 경로" style="rounded=1;whiteSpace=wrap;html=1;absoluteArcSize=1;arcSize=14;strokeWidth=2;" vertex="1" parent="1">
          <mxGeometry x="377.25" y="500" width="388.5" height="60" as="geometry" />
        </mxCell>
        <mxCell id="OQrnLdWi0ahkSrCYFGZf-9" value="" style="endArrow=classic;html=1;exitX=0.5;exitY=1;exitDx=0;exitDy=0;entryX=0.5;entryY=0;entryDx=0;entryDy=0;" edge="1" parent="1" source="OQrnLdWi0ahkSrCYFGZf-4" target="OQrnLdWi0ahkSrCYFGZf-5">
          <mxGeometry width="50" height="50" relative="1" as="geometry">
            <mxPoint x="570" y="210" as="sourcePoint" />
            <mxPoint x="620" y="160" as="targetPoint" />
          </mxGeometry>
        </mxCell>
        <mxCell id="OQrnLdWi0ahkSrCYFGZf-10" value="" style="endArrow=classic;html=1;exitX=0.5;exitY=1;exitDx=0;exitDy=0;entryX=0.5;entryY=0;entryDx=0;entryDy=0;" edge="1" parent="1" source="OQrnLdWi0ahkSrCYFGZf-5" target="OQrnLdWi0ahkSrCYFGZf-6">
          <mxGeometry width="50" height="50" relative="1" as="geometry">
            <mxPoint x="530" y="320" as="sourcePoint" />
            <mxPoint x="580" y="270" as="targetPoint" />
          </mxGeometry>
        </mxCell>
        <mxCell id="OQrnLdWi0ahkSrCYFGZf-11" value="" style="endArrow=classic;html=1;exitX=0.5;exitY=1;exitDx=0;exitDy=0;entryX=0.5;entryY=0;entryDx=0;entryDy=0;" edge="1" parent="1" source="OQrnLdWi0ahkSrCYFGZf-6" target="OQrnLdWi0ahkSrCYFGZf-7">
          <mxGeometry width="50" height="50" relative="1" as="geometry">
            <mxPoint x="550" y="430" as="sourcePoint" />
            <mxPoint x="600" y="380" as="targetPoint" />
          </mxGeometry>
        </mxCell>
        <mxCell id="OQrnLdWi0ahkSrCYFGZf-12" value="" style="endArrow=classic;html=1;exitX=0.5;exitY=1;exitDx=0;exitDy=0;entryX=0.5;entryY=0;entryDx=0;entryDy=0;" edge="1" parent="1" source="OQrnLdWi0ahkSrCYFGZf-7" target="OQrnLdWi0ahkSrCYFGZf-8">
          <mxGeometry width="50" height="50" relative="1" as="geometry">
            <mxPoint x="540" y="530" as="sourcePoint" />
            <mxPoint x="590" y="480" as="targetPoint" />
          </mxGeometry>
        </mxCell>
        <mxCell id="OQrnLdWi0ahkSrCYFGZf-14" value="" style="endArrow=classic;html=1;exitX=0.5;exitY=1;exitDx=0;exitDy=0;entryX=0.5;entryY=0;entryDx=0;entryDy=0;entryPerimeter=0;" edge="1" parent="1" source="OQrnLdWi0ahkSrCYFGZf-8" target="kD6bPrZGEhRhWK4-ZteS-3">
          <mxGeometry width="50" height="50" relative="1" as="geometry">
            <mxPoint x="510" y="630" as="sourcePoint" />
            <mxPoint x="560" y="580" as="targetPoint" />
          </mxGeometry>
        </mxCell>
        <mxCell id="OQrnLdWi0ahkSrCYFGZf-16" value="백업설정파일 include" style="shape=document;whiteSpace=wrap;html=1;boundedLbl=1;" vertex="1" parent="1">
          <mxGeometry x="492.25" y="760" width="158.5" height="80" as="geometry" />
        </mxCell>
        <mxCell id="OQrnLdWi0ahkSrCYFGZf-17" value="" style="endArrow=classic;html=1;exitX=0.5;exitY=1;exitDx=0;exitDy=0;exitPerimeter=0;entryX=0.5;entryY=0;entryDx=0;entryDy=0;" edge="1" parent="1" source="kD6bPrZGEhRhWK4-ZteS-3" target="OQrnLdWi0ahkSrCYFGZf-16">
          <mxGeometry width="50" height="50" relative="1" as="geometry">
            <mxPoint x="560" y="840" as="sourcePoint" />
            <mxPoint x="572" y="750" as="targetPoint" />
          </mxGeometry>
        </mxCell>
        <mxCell id="OQrnLdWi0ahkSrCYFGZf-51" value="아니오" style="edgeLabel;html=1;align=center;verticalAlign=middle;resizable=0;points=[];" vertex="1" connectable="0" parent="OQrnLdWi0ahkSrCYFGZf-17">
          <mxGeometry x="0.44" y="-1" relative="1" as="geometry">
            <mxPoint y="-16" as="offset" />
          </mxGeometry>
        </mxCell>
        <mxCell id="OQrnLdWi0ahkSrCYFGZf-19" value="소스경로가 없을경우" style="strokeWidth=2;html=1;shape=mxgraph.flowchart.decision;whiteSpace=wrap;" vertex="1" parent="1">
          <mxGeometry x="483" y="900" width="183" height="100" as="geometry" />
        </mxCell>
        <mxCell id="OQrnLdWi0ahkSrCYFGZf-20" value="" style="endArrow=classic;html=1;entryX=0.5;entryY=0;entryDx=0;entryDy=0;exitX=1;exitY=0.5;exitDx=0;exitDy=0;exitPerimeter=0;" edge="1" target="OQrnLdWi0ahkSrCYFGZf-22" parent="1" source="OQrnLdWi0ahkSrCYFGZf-19">
          <mxGeometry width="50" height="50" relative="1" as="geometry">
            <mxPoint x="663" y="950" as="sourcePoint" />
            <mxPoint x="610" y="960" as="targetPoint" />
            <Array as="points">
              <mxPoint x="960" y="950" />
            </Array>
          </mxGeometry>
        </mxCell>
        <mxCell id="OQrnLdWi0ahkSrCYFGZf-21" value="예" style="edgeLabel;html=1;align=center;verticalAlign=middle;resizable=0;points=[];" vertex="1" connectable="0" parent="OQrnLdWi0ahkSrCYFGZf-20">
          <mxGeometry x="-0.591" y="-2" relative="1" as="geometry">
            <mxPoint x="54" y="-2" as="offset" />
          </mxGeometry>
        </mxCell>
        <mxCell id="OQrnLdWi0ahkSrCYFGZf-22" value="에러로그파일에&lt;br&gt;&amp;nbsp;&quot;소스경로가 없습니다.[ERROR 2000]&quot;&lt;br&gt;&amp;nbsp;쓰고저장" style="rounded=1;whiteSpace=wrap;html=1;absoluteArcSize=1;arcSize=14;strokeWidth=2;" vertex="1" parent="1">
          <mxGeometry x="820" y="990" width="280" height="60" as="geometry" />
        </mxCell>
        <mxCell id="OQrnLdWi0ahkSrCYFGZf-23" value="" style="endArrow=classic;html=1;entryX=0.5;entryY=0;entryDx=0;entryDy=0;entryPerimeter=0;exitX=0.5;exitY=1;exitDx=0;exitDy=0;" edge="1" source="OQrnLdWi0ahkSrCYFGZf-22" target="OQrnLdWi0ahkSrCYFGZf-24" parent="1">
          <mxGeometry width="50" height="50" relative="1" as="geometry">
            <mxPoint x="560" y="1010" as="sourcePoint" />
            <mxPoint x="610" y="960" as="targetPoint" />
            <Array as="points" />
          </mxGeometry>
        </mxCell>
        <mxCell id="OQrnLdWi0ahkSrCYFGZf-24" value="종료" style="strokeWidth=2;html=1;shape=mxgraph.flowchart.terminator;whiteSpace=wrap;" vertex="1" parent="1">
          <mxGeometry x="897.5" y="1100" width="125" height="60" as="geometry" />
        </mxCell>
        <mxCell id="OQrnLdWi0ahkSrCYFGZf-25" value="" style="endArrow=classic;html=1;exitX=0.52;exitY=0.858;exitDx=0;exitDy=0;exitPerimeter=0;entryX=0.5;entryY=0;entryDx=0;entryDy=0;entryPerimeter=0;" edge="1" parent="1" source="OQrnLdWi0ahkSrCYFGZf-16" target="OQrnLdWi0ahkSrCYFGZf-19">
          <mxGeometry width="50" height="50" relative="1" as="geometry">
            <mxPoint x="530" y="900" as="sourcePoint" />
            <mxPoint x="580" y="850" as="targetPoint" />
          </mxGeometry>
        </mxCell>
        <mxCell id="OQrnLdWi0ahkSrCYFGZf-26" value="소스경로 이동" style="rounded=1;whiteSpace=wrap;html=1;absoluteArcSize=1;arcSize=14;strokeWidth=2;" vertex="1" parent="1">
          <mxGeometry x="434.5" y="1050" width="280" height="60" as="geometry" />
        </mxCell>
        <mxCell id="OQrnLdWi0ahkSrCYFGZf-27" value="" style="endArrow=classic;html=1;exitX=0.5;exitY=1;exitDx=0;exitDy=0;exitPerimeter=0;entryX=0.5;entryY=0;entryDx=0;entryDy=0;" edge="1" parent="1" source="OQrnLdWi0ahkSrCYFGZf-19" target="OQrnLdWi0ahkSrCYFGZf-26">
          <mxGeometry width="50" height="50" relative="1" as="geometry">
            <mxPoint x="520" y="940" as="sourcePoint" />
            <mxPoint x="570" y="890" as="targetPoint" />
            <Array as="points" />
          </mxGeometry>
        </mxCell>
        <mxCell id="OQrnLdWi0ahkSrCYFGZf-50" value="아니오" style="edgeLabel;html=1;align=center;verticalAlign=middle;resizable=0;points=[];" vertex="1" connectable="0" parent="OQrnLdWi0ahkSrCYFGZf-27">
          <mxGeometry x="0.36" relative="1" as="geometry">
            <mxPoint y="-19" as="offset" />
          </mxGeometry>
        </mxCell>
        <mxCell id="OQrnLdWi0ahkSrCYFGZf-28" value="web_file_list = 소스경로의 아카이브파일을 제외한 파일 목록" style="rounded=1;whiteSpace=wrap;html=1;absoluteArcSize=1;arcSize=14;strokeWidth=2;" vertex="1" parent="1">
          <mxGeometry x="434.5" y="1270" width="280" height="60" as="geometry" />
        </mxCell>
        <mxCell id="OQrnLdWi0ahkSrCYFGZf-29" value="web_dir_list = 소스경로의 하위 디렉터리 목록" style="rounded=1;whiteSpace=wrap;html=1;absoluteArcSize=1;arcSize=14;strokeWidth=2;" vertex="1" parent="1">
          <mxGeometry x="434.5" y="1160" width="280" height="60" as="geometry" />
        </mxCell>
        <mxCell id="OQrnLdWi0ahkSrCYFGZf-30" value="" style="endArrow=classic;html=1;exitX=0.5;exitY=1;exitDx=0;exitDy=0;entryX=0.5;entryY=0;entryDx=0;entryDy=0;" edge="1" parent="1" source="OQrnLdWi0ahkSrCYFGZf-26" target="OQrnLdWi0ahkSrCYFGZf-29">
          <mxGeometry width="50" height="50" relative="1" as="geometry">
            <mxPoint x="570" y="1130" as="sourcePoint" />
            <mxPoint x="570" y="1180" as="targetPoint" />
            <Array as="points" />
          </mxGeometry>
        </mxCell>
        <mxCell id="OQrnLdWi0ahkSrCYFGZf-32" value="" style="endArrow=classic;html=1;exitX=0.5;exitY=1;exitDx=0;exitDy=0;entryX=0.5;entryY=0;entryDx=0;entryDy=0;" edge="1" parent="1" source="OQrnLdWi0ahkSrCYFGZf-29" target="OQrnLdWi0ahkSrCYFGZf-28">
          <mxGeometry width="50" height="50" relative="1" as="geometry">
            <mxPoint x="574" y="1230" as="sourcePoint" />
            <mxPoint x="574" y="1270" as="targetPoint" />
            <Array as="points" />
          </mxGeometry>
        </mxCell>
        <mxCell id="OQrnLdWi0ahkSrCYFGZf-33" value="" style="endArrow=classic;html=1;exitX=0.5;exitY=1;exitDx=0;exitDy=0;entryX=0.5;entryY=0;entryDx=0;entryDy=0;entryPerimeter=0;" edge="1" parent="1" source="OQrnLdWi0ahkSrCYFGZf-28" target="OQrnLdWi0ahkSrCYFGZf-35">
          <mxGeometry width="50" height="50" relative="1" as="geometry">
            <mxPoint x="550" y="1420" as="sourcePoint" />
            <mxPoint x="574.5" y="1370" as="targetPoint" />
          </mxGeometry>
        </mxCell>
        <mxCell id="OQrnLdWi0ahkSrCYFGZf-35" value="백업디렉터리가 없을경우" style="strokeWidth=2;html=1;shape=mxgraph.flowchart.decision;whiteSpace=wrap;" vertex="1" parent="1">
          <mxGeometry x="483" y="1380" width="183" height="100" as="geometry" />
        </mxCell>
        <mxCell id="OQrnLdWi0ahkSrCYFGZf-37" value="" style="endArrow=classic;html=1;entryX=0.5;entryY=0;entryDx=0;entryDy=0;exitX=1;exitY=0.5;exitDx=0;exitDy=0;exitPerimeter=0;" edge="1" target="OQrnLdWi0ahkSrCYFGZf-39" parent="1" source="OQrnLdWi0ahkSrCYFGZf-35">
          <mxGeometry width="50" height="50" relative="1" as="geometry">
            <mxPoint x="666" y="1430" as="sourcePoint" />
            <mxPoint x="613" y="1440" as="targetPoint" />
            <Array as="points">
              <mxPoint x="963" y="1430" />
            </Array>
          </mxGeometry>
        </mxCell>
        <mxCell id="OQrnLdWi0ahkSrCYFGZf-38" value="예" style="edgeLabel;html=1;align=center;verticalAlign=middle;resizable=0;points=[];" vertex="1" connectable="0" parent="OQrnLdWi0ahkSrCYFGZf-37">
          <mxGeometry x="-0.591" y="-2" relative="1" as="geometry">
            <mxPoint x="54" y="-2" as="offset" />
          </mxGeometry>
        </mxCell>
        <mxCell id="OQrnLdWi0ahkSrCYFGZf-39" value="백업디렉터리 생성" style="rounded=1;whiteSpace=wrap;html=1;absoluteArcSize=1;arcSize=14;strokeWidth=2;" vertex="1" parent="1">
          <mxGeometry x="823" y="1480" width="280" height="60" as="geometry" />
        </mxCell>
        <mxCell id="OQrnLdWi0ahkSrCYFGZf-40" value="" style="endArrow=classic;html=1;exitX=0.5;exitY=1;exitDx=0;exitDy=0;entryX=1;entryY=0.5;entryDx=0;entryDy=0;" edge="1" source="OQrnLdWi0ahkSrCYFGZf-39" target="OQrnLdWi0ahkSrCYFGZf-44" parent="1">
          <mxGeometry width="50" height="50" relative="1" as="geometry">
            <mxPoint x="563" y="1490" as="sourcePoint" />
            <mxPoint x="710" y="1600" as="targetPoint" />
            <Array as="points">
              <mxPoint x="963" y="1600" />
            </Array>
          </mxGeometry>
        </mxCell>
        <mxCell id="OQrnLdWi0ahkSrCYFGZf-44" value="백업디렉터리 이동" style="rounded=1;whiteSpace=wrap;html=1;absoluteArcSize=1;arcSize=14;strokeWidth=2;" vertex="1" parent="1">
          <mxGeometry x="434.5" y="1570" width="280" height="60" as="geometry" />
        </mxCell>
        <mxCell id="OQrnLdWi0ahkSrCYFGZf-46" value="" style="endArrow=classic;html=1;exitX=0.5;exitY=1;exitDx=0;exitDy=0;entryX=0.5;entryY=0;entryDx=0;entryDy=0;exitPerimeter=0;" edge="1" parent="1" source="OQrnLdWi0ahkSrCYFGZf-35" target="OQrnLdWi0ahkSrCYFGZf-44">
          <mxGeometry width="50" height="50" relative="1" as="geometry">
            <mxPoint x="574" y="1510" as="sourcePoint" />
            <mxPoint x="574" y="1560" as="targetPoint" />
          </mxGeometry>
        </mxCell>
        <mxCell id="OQrnLdWi0ahkSrCYFGZf-49" value="아니오" style="edgeLabel;html=1;align=center;verticalAlign=middle;resizable=0;points=[];" vertex="1" connectable="0" parent="OQrnLdWi0ahkSrCYFGZf-46">
          <mxGeometry x="-0.58" relative="1" as="geometry">
            <mxPoint as="offset" />
          </mxGeometry>
        </mxCell>
        <mxCell id="OQrnLdWi0ahkSrCYFGZf-52" value="" style="endArrow=classic;html=1;exitX=0.5;exitY=1;exitDx=0;exitDy=0;exitPerimeter=0;entryX=0.5;entryY=0;entryDx=0;entryDy=0;" edge="1" parent="1" source="kD6bPrZGEhRhWK4-ZteS-1" target="OQrnLdWi0ahkSrCYFGZf-4">
          <mxGeometry width="50" height="50" relative="1" as="geometry">
            <mxPoint x="560" y="130" as="sourcePoint" />
            <mxPoint x="572" y="100" as="targetPoint" />
          </mxGeometry>
        </mxCell>
        <mxCell id="OQrnLdWi0ahkSrCYFGZf-53" value="for web_dir_list" style="swimlane;" vertex="1" parent="1">
          <mxGeometry x="419.5" y="1690" width="310" height="290" as="geometry" />
        </mxCell>
        <mxCell id="OQrnLdWi0ahkSrCYFGZf-55" value="디렉터리별 압축" style="rounded=1;whiteSpace=wrap;html=1;absoluteArcSize=1;arcSize=14;strokeWidth=2;" vertex="1" parent="OQrnLdWi0ahkSrCYFGZf-53">
          <mxGeometry x="15" y="70" width="280" height="60" as="geometry" />
        </mxCell>
        <mxCell id="OQrnLdWi0ahkSrCYFGZf-58" value="" style="endArrow=classic;html=1;entryX=0.5;entryY=0;entryDx=0;entryDy=0;" edge="1" parent="OQrnLdWi0ahkSrCYFGZf-53" target="OQrnLdWi0ahkSrCYFGZf-55">
          <mxGeometry width="50" height="50" relative="1" as="geometry">
            <mxPoint x="155.5" as="sourcePoint" />
            <mxPoint x="230.5" y="40" as="targetPoint" />
          </mxGeometry>
        </mxCell>
        <mxCell id="OQrnLdWi0ahkSrCYFGZf-60" value="압축될때까지 대기" style="rounded=1;whiteSpace=wrap;html=1;absoluteArcSize=1;arcSize=14;strokeWidth=2;" vertex="1" parent="OQrnLdWi0ahkSrCYFGZf-53">
          <mxGeometry x="15" y="180" width="280" height="60" as="geometry" />
        </mxCell>
        <mxCell id="OQrnLdWi0ahkSrCYFGZf-62" value="" style="endArrow=classic;html=1;exitX=0.5;exitY=1;exitDx=0;exitDy=0;entryX=0.5;entryY=0;entryDx=0;entryDy=0;" edge="1" parent="OQrnLdWi0ahkSrCYFGZf-53" source="OQrnLdWi0ahkSrCYFGZf-55" target="OQrnLdWi0ahkSrCYFGZf-60">
          <mxGeometry width="50" height="50" relative="1" as="geometry">
            <mxPoint x="140.5" y="190" as="sourcePoint" />
            <mxPoint x="190.5" y="140" as="targetPoint" />
          </mxGeometry>
        </mxCell>
        <mxCell id="OQrnLdWi0ahkSrCYFGZf-73" value="" style="endArrow=classic;html=1;exitX=0.5;exitY=1;exitDx=0;exitDy=0;entryX=0.5;entryY=1;entryDx=0;entryDy=0;" edge="1" parent="OQrnLdWi0ahkSrCYFGZf-53" source="OQrnLdWi0ahkSrCYFGZf-60" target="OQrnLdWi0ahkSrCYFGZf-53">
          <mxGeometry width="50" height="50" relative="1" as="geometry">
            <mxPoint x="100.5" y="350" as="sourcePoint" />
            <mxPoint x="150.5" y="300" as="targetPoint" />
          </mxGeometry>
        </mxCell>
        <mxCell id="OQrnLdWi0ahkSrCYFGZf-57" value="" style="endArrow=classic;html=1;exitX=0.5;exitY=1;exitDx=0;exitDy=0;entryX=0.5;entryY=0;entryDx=0;entryDy=0;" edge="1" parent="1" source="OQrnLdWi0ahkSrCYFGZf-44" target="OQrnLdWi0ahkSrCYFGZf-53">
          <mxGeometry width="50" height="50" relative="1" as="geometry">
            <mxPoint x="530" y="1700" as="sourcePoint" />
            <mxPoint x="580" y="1650" as="targetPoint" />
          </mxGeometry>
        </mxCell>
        <mxCell id="OQrnLdWi0ahkSrCYFGZf-63" value="for file_list" style="swimlane;" vertex="1" parent="1">
          <mxGeometry x="419.5" y="2030" width="310" height="290" as="geometry" />
        </mxCell>
        <mxCell id="OQrnLdWi0ahkSrCYFGZf-64" value="파일 복사" style="rounded=1;whiteSpace=wrap;html=1;absoluteArcSize=1;arcSize=14;strokeWidth=2;" vertex="1" parent="OQrnLdWi0ahkSrCYFGZf-63">
          <mxGeometry x="15" y="70" width="280" height="60" as="geometry" />
        </mxCell>
        <mxCell id="OQrnLdWi0ahkSrCYFGZf-65" value="" style="endArrow=classic;html=1;entryX=0.5;entryY=0;entryDx=0;entryDy=0;" edge="1" parent="OQrnLdWi0ahkSrCYFGZf-63" target="OQrnLdWi0ahkSrCYFGZf-64">
          <mxGeometry width="50" height="50" relative="1" as="geometry">
            <mxPoint x="155.5" as="sourcePoint" />
            <mxPoint x="230.5" y="40" as="targetPoint" />
          </mxGeometry>
        </mxCell>
        <mxCell id="OQrnLdWi0ahkSrCYFGZf-66" value="복사될때까지 대기" style="rounded=1;whiteSpace=wrap;html=1;absoluteArcSize=1;arcSize=14;strokeWidth=2;" vertex="1" parent="OQrnLdWi0ahkSrCYFGZf-63">
          <mxGeometry x="15" y="180" width="280" height="60" as="geometry" />
        </mxCell>
        <mxCell id="OQrnLdWi0ahkSrCYFGZf-67" value="" style="endArrow=classic;html=1;exitX=0.5;exitY=1;exitDx=0;exitDy=0;entryX=0.5;entryY=0;entryDx=0;entryDy=0;" edge="1" parent="OQrnLdWi0ahkSrCYFGZf-63" source="OQrnLdWi0ahkSrCYFGZf-64" target="OQrnLdWi0ahkSrCYFGZf-66">
          <mxGeometry width="50" height="50" relative="1" as="geometry">
            <mxPoint x="140.5" y="190" as="sourcePoint" />
            <mxPoint x="190.5" y="140" as="targetPoint" />
          </mxGeometry>
        </mxCell>
        <mxCell id="OQrnLdWi0ahkSrCYFGZf-74" value="" style="endArrow=classic;html=1;exitX=0.5;exitY=1;exitDx=0;exitDy=0;" edge="1" parent="OQrnLdWi0ahkSrCYFGZf-63" source="OQrnLdWi0ahkSrCYFGZf-66">
          <mxGeometry width="50" height="50" relative="1" as="geometry">
            <mxPoint x="140.5" y="300" as="sourcePoint" />
            <mxPoint x="155.5" y="290" as="targetPoint" />
          </mxGeometry>
        </mxCell>
        <mxCell id="OQrnLdWi0ahkSrCYFGZf-69" value="상위디렉터리 1칸 이동" style="rounded=1;whiteSpace=wrap;html=1;absoluteArcSize=1;arcSize=14;strokeWidth=2;" vertex="1" parent="1">
          <mxGeometry x="434.5" y="2370" width="280" height="60" as="geometry" />
        </mxCell>
        <mxCell id="OQrnLdWi0ahkSrCYFGZf-70" value="" style="endArrow=classic;html=1;exitX=0.5;exitY=1;exitDx=0;exitDy=0;" edge="1" parent="1" source="OQrnLdWi0ahkSrCYFGZf-53">
          <mxGeometry width="50" height="50" relative="1" as="geometry">
            <mxPoint x="610" y="2030" as="sourcePoint" />
            <mxPoint x="575" y="2030" as="targetPoint" />
          </mxGeometry>
        </mxCell>
        <mxCell id="OQrnLdWi0ahkSrCYFGZf-71" value="" style="endArrow=classic;html=1;exitX=0.5;exitY=1;exitDx=0;exitDy=0;entryX=0.5;entryY=0;entryDx=0;entryDy=0;" edge="1" parent="1" source="OQrnLdWi0ahkSrCYFGZf-63" target="OQrnLdWi0ahkSrCYFGZf-69">
          <mxGeometry width="50" height="50" relative="1" as="geometry">
            <mxPoint x="580" y="2390" as="sourcePoint" />
            <mxPoint x="630" y="2340" as="targetPoint" />
          </mxGeometry>
        </mxCell>
        <mxCell id="OQrnLdWi0ahkSrCYFGZf-75" value="백업디렉터리 압축" style="rounded=1;whiteSpace=wrap;html=1;absoluteArcSize=1;arcSize=14;strokeWidth=2;" vertex="1" parent="1">
          <mxGeometry x="434.5" y="2481" width="280" height="60" as="geometry" />
        </mxCell>
        <mxCell id="OQrnLdWi0ahkSrCYFGZf-76" value="" style="endArrow=classic;html=1;entryX=0.5;entryY=0;entryDx=0;entryDy=0;exitX=0.5;exitY=1;exitDx=0;exitDy=0;" edge="1" parent="1" source="OQrnLdWi0ahkSrCYFGZf-69" target="OQrnLdWi0ahkSrCYFGZf-75">
          <mxGeometry width="50" height="50" relative="1" as="geometry">
            <mxPoint x="580" y="2430" as="sourcePoint" />
            <mxPoint x="570" y="2290" as="targetPoint" />
          </mxGeometry>
        </mxCell>
        <mxCell id="OQrnLdWi0ahkSrCYFGZf-77" value="백업서버 전송" style="rounded=1;whiteSpace=wrap;html=1;absoluteArcSize=1;arcSize=14;strokeWidth=2;" vertex="1" parent="1">
          <mxGeometry x="434.5" y="2590" width="280" height="60" as="geometry" />
        </mxCell>
        <mxCell id="OQrnLdWi0ahkSrCYFGZf-78" value="" style="endArrow=classic;html=1;exitX=0.5;exitY=1;exitDx=0;exitDy=0;entryX=0.5;entryY=0;entryDx=0;entryDy=0;" edge="1" parent="1" source="OQrnLdWi0ahkSrCYFGZf-75" target="OQrnLdWi0ahkSrCYFGZf-77">
          <mxGeometry width="50" height="50" relative="1" as="geometry">
            <mxPoint x="574" y="2560" as="sourcePoint" />
            <mxPoint x="574" y="2590" as="targetPoint" />
          </mxGeometry>
        </mxCell>
        <mxCell id="OQrnLdWi0ahkSrCYFGZf-79" value="" style="endArrow=classic;html=1;entryX=0.5;entryY=0;entryDx=0;entryDy=0;exitX=0.5;exitY=1;exitDx=0;exitDy=0;entryPerimeter=0;" edge="1" target="OQrnLdWi0ahkSrCYFGZf-81" parent="1" source="OQrnLdWi0ahkSrCYFGZf-77">
          <mxGeometry width="50" height="50" relative="1" as="geometry">
            <mxPoint x="575" y="2670" as="sourcePoint" />
            <mxPoint x="574.5" y="2699" as="targetPoint" />
          </mxGeometry>
        </mxCell>
        <mxCell id="OQrnLdWi0ahkSrCYFGZf-81" value="종료" style="strokeWidth=2;html=1;shape=mxgraph.flowchart.terminator;whiteSpace=wrap;" vertex="1" parent="1">
          <mxGeometry x="512" y="2700" width="125" height="60" as="geometry" />
        </mxCell>
      </root>
    </mxGraphModel>
  </diagram>
</mxfile>
